<svg width="68" height="65" viewBox="0 0 68 65" fill="none" xmlns="http://www.w3.org/2000/svg">
<g clip-path="url(#clip0_18_417)">
<path d="M13.2937 61.4297C13.2878 61.4297 13.2878 61.4386 13.2937 61.4386C13.2996 61.4386 13.2996 61.4297 13.2937 61.4297Z" fill="#534741"/>
<path d="M66.6612 23.206L64.9138 23.2887C65.7313 26.0954 66.3458 29.5472 66.3458 32.5C66.3458 36.6631 65.5338 40.7022 63.9345 44.5042C62.3901 48.1765 60.1764 51.474 57.3592 54.3054C54.542 57.1369 51.2584 59.3619 47.6073 60.9141C43.8245 62.5214 39.8058 63.3375 35.6636 63.3375C31.5215 63.3375 27.5027 62.5214 23.7199 60.9141C20.066 59.3619 16.7852 57.1369 13.968 54.3054C11.1508 51.474 8.93708 48.1738 7.39269 44.5042C5.79343 40.7022 4.98146 36.6631 4.98146 32.5C4.98146 28.3369 5.79343 24.2978 7.39269 20.4958C8.93708 16.8235 11.1508 13.526 13.968 10.6946C16.788 7.86032 20.0688 5.63815 23.7227 4.08318C27.5055 2.47582 31.5242 1.65974 35.6664 1.65974C41.9756 1.65974 48.038 3.57037 53.1924 7.18209C57.8996 10.4795 61.5535 14.968 63.8193 20.2146H62.1542H62.1268H59.1148H52.5203H51.3901V21.8771H52.5203H59.9186H62.1268H62.1542H66.2607L65.8246 20.7467C63.4929 14.7033 59.4522 9.54212 54.1387 5.82011C48.7018 2.01264 42.313 0 35.6636 0C31.2993 0 27.0638 0.860197 23.078 2.55302C19.2266 4.1907 15.7703 6.53419 12.7994 9.52006C9.83135 12.5032 7.49967 15.9798 5.87024 19.8479C4.1832 23.8539 3.33008 28.1108 3.33008 32.4972C3.33008 36.8837 4.18594 41.1406 5.87024 45.1465C7.49967 49.0174 9.83135 52.4913 12.7994 55.4772C15.7675 58.4603 19.2266 60.8038 23.078 62.4415C27.0638 64.137 31.2993 64.9945 35.6636 64.9945C40.028 64.9945 44.2634 64.1343 48.2492 62.4415C52.1006 60.8038 55.5569 58.4603 58.5278 55.4772C61.4959 52.4941 63.8276 49.0174 65.457 45.1465C67.144 41.1406 67.9971 36.8837 67.9971 32.4972C67.9999 29.3901 67.5226 26.1643 66.6612 23.206Z" fill="#007163"/>
<path d="M50.9676 18.9905H45.2207C44.9903 18.9905 44.801 19.178 44.801 19.4123V22.4726C44.801 22.7042 44.9903 22.8944 45.2207 22.8944H50.9676C51.1212 22.8944 51.2557 22.809 51.3297 22.6849C51.3544 22.6436 51.3709 22.5994 51.3818 22.5498C51.3873 22.525 51.3901 22.4974 51.3901 22.4726V19.4123C51.3901 19.4013 51.3873 19.3902 51.3873 19.3765C51.3681 19.1614 51.1898 18.9905 50.9676 18.9905Z" fill="#A67C52"/>
<path d="M58.4648 19.065C52.1144 8.35391 38.6785 2.83707 25.6924 7.89072C16.9006 11.3122 9.34044 21.9296 8.96737 31.3973C8.16911 51.6505 28.4849 65.5625 47.1713 56.9137C55.173 53.2082 60.7691 45.6291 61.9514 36.8534C62.6371 31.7695 61.9706 27.0411 60.3301 22.878H52.5177V23.2337C52.5177 23.4625 52.3339 23.65 52.1034 23.65H44.2059C43.9782 23.65 43.7917 23.4652 43.7917 23.2337V18.5219C43.7917 18.293 43.9755 18.1056 44.2059 18.1056H52.1034C52.3311 18.1056 52.5177 18.2903 52.5177 18.5219V19.065H58.4648ZM21.7806 49.7178C18.028 46.6961 15.6716 42.3841 15.1449 37.5813L17.1475 37.3607C17.6138 41.6259 19.7068 45.4554 23.0397 48.138C26.3727 50.8234 30.545 52.042 34.7887 51.5705L35.0081 53.5832C30.2323 54.1125 25.5333 52.7395 21.7806 49.7178ZM20.3981 36.3765L22.8011 36.109C23.4677 42.1938 28.9183 46.5858 34.9725 45.9158L35.2385 48.331C27.8677 49.1498 21.2101 43.7846 20.3981 36.3765ZM43.9535 34.4107C43.5503 36.8452 42.0498 38.9708 39.8964 40.1564C33.4116 43.7323 25.9996 38.447 27.2148 31.1133C27.6181 28.6788 29.1186 26.5531 31.2719 25.3676C37.7595 21.7917 45.1715 27.077 43.9535 34.4107Z" fill="#1A2535"/>
<path d="M3.6483 50.0789C3.62636 49.9162 3.60441 49.7536 3.58247 49.5909C3.49468 49.2794 3.33833 49.0119 3.11339 48.7831C2.98994 48.6866 2.8665 48.5929 2.74306 48.4964C2.45777 48.3309 2.15328 48.2482 1.8241 48.2455C1.57448 48.2372 1.33857 48.2896 1.12186 48.4026C0.896919 48.4771 0.699413 48.6039 0.534823 48.7803C0.356519 48.9458 0.230334 49.1443 0.159012 49.3703C0.0437992 49.5882 -0.00832069 49.8253 0.00265191 50.0762C0.0245971 50.2388 0.0465424 50.4015 0.0684876 50.5641C0.156268 50.8757 0.312628 51.1431 0.537567 51.372C0.661008 51.4685 0.78445 51.5622 0.907892 51.6587C1.19318 51.8241 1.49767 51.9068 1.82685 51.9096C2.07922 51.9179 2.31239 51.8655 2.52909 51.7524C2.75403 51.678 2.95154 51.5512 3.11613 51.3747C3.29443 51.2093 3.42062 51.0108 3.49194 50.7847C3.60441 50.5669 3.65653 50.3326 3.6483 50.0789Z" fill="#007163"/>
</g>
<defs>
<clipPath id="clip0_18_417">
<rect width="68" height="65" fill="white"/>
</clipPath>
</defs>
</svg>
